<svg height="512pt" viewBox="0 -80 512.00048 512" width="512pt" xmlns="http://www.w3.org/2000/svg"><path d="m399.957031 143.886719h-.941406c-9.089844-78.984375-80.484375-135.644531-159.46875-126.554688-66.464844 7.648438-118.902344 60.085938-126.550781 126.554688h-.945313c-53 0-95.96875 42.964843-95.96875 95.96875 0 53 42.96875 95.96875 95.96875 95.96875h287.910157c53 0 95.964843-42.96875 95.964843-95.96875 0-53.003907-42.964843-95.96875-95.96875-95.96875zm0 0" fill="#bddbff"/><g fill="#3d9ae2"><path d="m412.851562 128.625c-17.316406-86.621094-101.578124-142.808594-188.199218-125.492188-63.332032 12.660157-112.832032 62.164063-125.492188 125.492188-61.429687 7.078125-105.492187 62.613281-98.414062 124.042969 6.511718 56.535156 54.398437 99.1875 111.304687 99.152343h287.910157c61.835937.039063 111.996093-50.050781 112.039062-111.886718.039062-56.910156-42.617188-104.792969-99.148438-111.308594zm-12.894531 191.203125h-287.90625c-44.167969-.261719-79.761719-36.277344-79.5-80.445313.257813-44.167968 36.277344-79.761718 80.445313-79.503906 8.152344.003906 15-6.128906 15.898437-14.234375 8.121094-70.203125 71.613281-120.527343 141.816407-112.40625 59.019531 6.828125 105.578124 53.386719 112.40625 112.40625.894531 8.105469 7.746093 14.234375 15.898437 14.234375h.941406c44.167969 0 79.976563 35.808594 79.976563 79.976563s-35.804688 79.972656-79.976563 79.972656zm0 0"/><path d="m319.984375 191.871094h-47.984375v-47.984375c0-8.835938-7.160156-15.996094-15.996094-15.996094-8.832031 0-15.996094 7.160156-15.996094 15.996094v47.984375h-47.980468c-8.835938 0-15.996094 7.160156-15.996094 15.992187 0 8.835938 7.160156 15.996094 15.996094 15.996094h47.980468v47.984375c0 8.835938 7.164063 15.996094 15.996094 15.996094 8.835938 0 15.996094-7.160156 15.996094-15.996094v-47.984375h47.984375c8.832031 0 15.996094-7.160156 15.996094-15.996094 0-8.832031-7.164063-15.992187-15.996094-15.992187zm0 0"/></g></svg>